<svg viewBox="0 0 1340.96 566.93" xmlns="http://www.w3.org/2000/svg" xmlns:xlink="http://www.w3.org/1999/xlink"><linearGradient id="a" gradientUnits="userSpaceOnUse" x1="16.45" x2="551.79" y1="548.22" y2="17.4"><stop offset="0" stop-color="#1736a4"/><stop offset=".33" stop-color="#394aea"/><stop offset=".46" stop-color="#5b4be4"/><stop offset=".61" stop-color="#7d4ddf"/><stop offset=".76" stop-color="#954edb"/><stop offset=".89" stop-color="#a34ed9"/><stop offset="1" stop-color="#a94fd9"/></linearGradient><circle cx="226.77" cy="283.46" fill="#394aea" r="56.69" transform="matrix(.70710678 -.70710678 .70710678 .70710678 -134.02 243.38)"/><path d="m510.24 226.77h-113.39c-31.31 0-56.69 25.38-56.69 56.69 0 31.31 25.38 56.69 56.69 56.69h14.17c23.48 0 42.52 19.03 42.52 42.51v14.18 14.17c0 23.48-19.04 42.52-42.52 42.52h-255.11c-23.48 0-42.52-19.04-42.52-42.52v-14.17-226.76-14.17c0-23.48 19.04-42.52 42.52-42.52h240.94c31.31 0 56.69-25.38 56.69-56.69 0-31.31-25.38-56.69-56.69-56.69h-226.77c-31.31 0-56.69 25.38-56.69 56.69s-25.38 56.69-56.69 56.69-56.7 25.38-56.7 56.69v226.77c0 31.31 25.38 56.69 56.69 56.69s56.69 25.38 56.69 56.69c0 31.31 25.38 56.69 56.69 56.69h226.77c31.31 0 56.69-25.38 56.69-56.69 0-31.31 25.38-56.69 56.69-56.69s56.69-25.38 56.69-56.69v-113.39c0-31.31-25.38-56.69-56.69-56.69z" fill="url(#a)"/><g fill="#fff"><path d="m662.31 59.58h39.36v100.39h52.9v35.57h-92.26z"/><path d="m765.91 144.98c0-32.32 22.21-54.16 44.6-54.16 15.53 0 25.28 7.94 31.05 16.07h.18l3.61-13.18h32.86v101.83h-32.86l-3.61-13.18h-.18c-5.78 8.12-15.53 16.07-31.05 16.07-22.39 0-44.6-21.85-44.6-53.44zm56.87 19.14c10.29 0 17.33-8.31 17.33-19.5s-7.04-19.5-17.33-19.5-17.87 9.03-17.87 19.5 7.22 19.5 17.87 19.5z"/><path d="m722.29 538.4c-39.18 0-71.32-28.71-71.32-70.6s32.14-70.96 71.32-70.96c15.53 0 27.62 4.15 38.1 9.39v38.28c-10.83-7.76-20.58-11.38-33.04-11.38-21.31 0-36.65 14.63-36.65 34.67s15.35 34.85 36.65 34.85c12.46 0 22.03-4.51 33.04-12.46v38.82c-10.47 5.24-22.57 9.39-38.1 9.39z"/><path d="m771.72 484.96c0-31.78 22.75-53.98 52.9-53.98 27.26 0 49.47 18.05 49.47 52.18 0 4.33-.36 8.3-.9 11.74h-63.92c4.88 9.75 16.07 14.26 28.17 14.26 11.01 0 20.76-3.61 29.79-7.58v29.43c-10.47 5.06-22.39 7.58-35.21 7.58-39 0-60.3-22.93-60.3-53.62zm65.9-11.38c-.18-7.04-4.87-13.18-13.18-13.18-7.58 0-13.9 5.05-16.61 13.18z"/><path d="m990.94 467.08v68.61h-38.64v-58.5c0-8.31-3.61-11.92-10.65-11.92-7.4 0-11.92 4.88-11.92 11.38v59.04h-38.64v-101.83h29.97l3.79 13.36h.72c6.14-9.57 16.61-16.25 30.15-16.25 22.21 0 35.21 13.18 35.21 36.11z"/><path d="m1053.38 433.86h27.08v31.42h-27.08v26c0 10.29 7.76 14.08 17.87 14.08 2.89 0 5.96-.36 9.21-.9v32.14c-5.78 1.26-10.65 1.99-18.78 1.99-30.69 0-45.5-18.05-45.5-44.96v-28.35h-13.9v-31.42h13.9v-23.47h37.19v23.47z"/><path d="m1097.47 433.86h30.69l3.79 14.44h.36c6.68-11.74 17.51-15.71 26.72-15.71 3.25 0 5.78.36 8.31 1.08v35.75c-3.25-.72-6.5-1.08-9.57-1.08-11.38 0-21.67 5.42-21.67 23.65v43.69h-38.64v-101.83z"/><path d="m1173.01 485.14c0-32.32 22.21-54.16 44.6-54.16 15.53 0 25.28 7.94 31.05 16.07h.18l3.61-13.18h32.86v101.83h-32.86l-3.61-13.18h-.18c-5.78 8.12-15.53 16.07-31.05 16.07-22.39 0-44.6-21.85-44.6-53.44zm56.87 19.14c10.29 0 17.33-8.31 17.33-19.5s-7.04-19.5-17.33-19.5-17.87 9.03-17.87 19.5 7.22 19.5 17.87 19.5z"/><path d="m1302.32 399.74h38.64v135.95h-38.64z"/><path d="m723.91 333.12c5.24 0 9.93-1.26 13.72-3.07v-37.55h35.57v60.3c-13.18 9.39-29.43 15.71-50.01 15.71-38.82 0-72.22-27.26-72.22-70.78s33.76-70.96 72.22-70.96c18.05 0 32.32 4.51 43.33 10.83v37.92c-11.56-9.21-26.18-12.28-37.55-12.28-24.19 0-38.28 16.07-38.28 35.39s13.9 34.49 33.22 34.49z"/><path d="m790.21 322.64v-58.86h38.64v58.32c0 8.3 3.79 12.1 11.19 12.1s11.37-3.79 11.37-12.1v-58.32h38.64v58.86c0 26.54-18.78 45.86-50.01 45.86s-49.83-19.32-49.83-45.86z"/><path d="m907.06 263.78h38.64v101.83h-38.64z"/><path d="m957.04 315.06c0-32.32 22.21-54.16 44.6-54.16 15.53 0 25.28 7.94 31.05 16.07h.18l3.61-13.18h32.86v101.83h-32.86l-3.61-13.18h-.18c-5.78 8.12-15.53 16.07-31.05 16.07-22.39 0-44.6-21.85-44.6-53.44zm56.87 19.14c10.29 0 17.33-8.31 17.33-19.5s-7.04-19.5-17.33-19.5-17.87 9.03-17.87 19.5 7.22 19.5 17.87 19.5z"/><path d="m926.86 214.8h36.72l-28.26 32.94h-28.26z"/></g></svg>